<?xml version="1.0" encoding="UTF-8" standalone="no"?>
<svg
   xmlns:dc="http://purl.org/dc/elements/1.1/"
   xmlns:cc="http://creativecommons.org/ns#"
   xmlns:rdf="http://www.w3.org/1999/02/22-rdf-syntax-ns#"
   xmlns:svg="http://www.w3.org/2000/svg"
   xmlns="http://www.w3.org/2000/svg"
   viewBox="0 0 1136.0627 1150.9093"
   height="1150.9093"
   width="1136.0627"
   xml:space="preserve"
   id="svg3980"
   version="1.1"><metadata
     id="metadata3986"><rdf:RDF><cc:Work
         rdf:about=""><dc:format>image/svg+xml</dc:format><dc:type
           rdf:resource="http://purl.org/dc/dcmitype/StillImage" /><dc:title></dc:title></cc:Work></rdf:RDF></metadata><defs
     id="defs3984"><clipPath
       id="clipPath3996"
       clipPathUnits="userSpaceOnUse"><path
         id="path3994"
         d="M 0,863.182 H 852.047 V 0 H 0 Z" /></clipPath><clipPath
       id="clipPath4136"
       clipPathUnits="userSpaceOnUse"><path
         id="path4134"
         d="M 0,863.182 H 852.047 V 0 H 0 Z" /></clipPath></defs><g
     transform="matrix(1.3333333,0,0,-1.3333333,0,1150.9093)"
     id="g3988"><g
       id="g3990"><g
         clip-path="url(#clipPath3996)"
         id="g3992"><g
           transform="translate(473.6738,408.4586)"
           id="g3998"><path
             id="path4000"
             style="fill:#015eb0;fill-opacity:1;fill-rule:nonzero;stroke:none"
             d="m 0,0 c -4.924,-10.218 -13.205,-18.514 -23.408,-23.482 -6.64,-3.209 -14.078,-5.014 -21.945,-5.014 -7.733,0 -15.053,1.746 -21.604,4.866 -3.549,1.685 -6.861,3.77 -9.893,6.21 -2.854,2.293 -5.442,4.88 -7.734,7.734 -2.307,2.869 -4.303,6.004 -5.959,9.346 -3.268,6.684 -5.117,14.211 -5.117,22.151 0,7.867 1.805,15.305 5.014,21.945 1.375,2.795 2.986,5.456 4.82,7.941 2.987,4.036 6.551,7.6 10.588,10.587 2.529,1.863 5.22,3.505 8.074,4.88 6.595,3.165 14.003,4.954 21.811,4.954 7.941,0 15.468,-1.848 22.152,-5.117 C -13.027,61.989 -4.791,53.663 0.089,43.416 3.209,36.865 4.954,29.545 4.954,21.811 4.954,14.003 3.165,6.595 0,0 m 76.998,66.78 h -0.015 c -1.685,0.103 -3.327,0.266 -4.983,0.473 -12.82,1.642 -24.739,6.211 -35.046,13.013 -9.316,6.137 -17.316,14.122 -23.482,23.408 -6.729,10.1 -11.284,21.738 -13.029,34.292 -0.295,2.041 -0.502,4.111 -0.635,6.196 -14.063,5.205 -29.279,8.045 -45.161,8.045 -15.867,0 -31.068,-2.84 -45.131,-8.045 -0.118,-1.833 -0.296,-3.638 -0.547,-5.441 -1.686,-12.688 -6.24,-24.473 -13.013,-34.677 -6.152,-9.301 -14.137,-17.287 -23.438,-23.453 -10.129,-6.714 -21.811,-11.268 -34.395,-12.983 -1.894,-0.266 -3.801,-0.459 -5.723,-0.591 -5.205,-14.049 -8.03,-29.235 -8.03,-45.087 0,-15.852 2.825,-31.039 8.03,-45.087 2.114,-0.134 4.2,-0.355 6.269,-0.651 12.555,-1.745 24.193,-6.299 34.292,-13.027 9.287,-6.167 17.272,-14.167 23.409,-23.483 6.802,-10.307 11.372,-22.225 13.013,-35.046 0.207,-1.671 0.369,-3.372 0.488,-5.072 13.959,-5.117 29.043,-7.912 44.776,-7.912 15.926,0 31.187,2.854 45.28,8.089 0.133,1.849 0.325,3.668 0.576,5.487 1.716,12.584 6.269,24.266 12.983,34.395 6.166,9.301 14.152,17.286 23.453,23.438 10.204,6.772 21.989,11.327 34.676,13.013 1.716,0.237 3.447,0.414 5.191,0.532 5.25,14.107 8.118,29.383 8.118,45.324 0,15.763 -2.794,30.876 -7.926,44.85" /></g><g
           transform="translate(553.6094,541.6564)"
           id="g4002"><path
             id="path4004"
             style="fill:#1c1c1c;fill-opacity:1;fill-rule:nonzero;stroke:none"
             d="m 0,0 c -7.065,1.114 -12.69,6.875 -13.724,13.914 -0.679,4.81 0.707,9.266 3.37,12.663 0.816,1.06 1.766,2.011 2.799,2.799 C -4.186,32.04 0.244,33.398 5,32.773 12.012,31.822 17.772,26.278 18.968,19.294 20.925,7.962 11.332,-1.767 0,0 m 96.635,86.688 c -7.337,8.289 -15.11,16.143 -23.317,23.562 L 24.675,61.606 c -6.631,3.234 -14.104,5.055 -22.012,5.055 -11.55,0 -22.202,-3.887 -30.708,-10.436 l -9.131,-9.158 c -3.669,-4.728 -6.495,-10.109 -8.288,-15.952 -1.413,-4.674 -2.175,-9.62 -2.175,-14.756 0,-7.88 1.822,-15.354 5.055,-22.012 4.974,-10.19 13.289,-18.451 23.507,-23.37 6.576,-3.153 13.941,-4.919 21.74,-4.919 5.082,0 9.974,0.761 14.62,2.147 20.654,6.277 35.682,25.463 35.682,48.154 0,7.8 -1.767,15.164 -4.919,21.74 l 23.914,23.915 1.087,1.087 c 40.898,-46.524 65.737,-107.56 65.737,-174.356 0,-54.759 -16.659,-105.603 -45.192,-147.779 5.299,-5.299 12.093,-7.827 18.832,-7.827 9.402,0 18.696,4.919 23.642,14.104 22.692,42.094 35.573,90.276 35.573,141.502 0,75.954 -28.371,145.305 -75.004,197.943" /></g><g
           transform="translate(556.3506,285.7379)"
           id="g4006"><path
             id="path4008"
             style="fill:#03aad7;fill-opacity:1;fill-rule:nonzero;stroke:none"
             d="m 0,0 c -4.422,0 -8.443,1.73 -11.416,4.569 -0.192,0.178 -0.385,0.37 -0.562,0.562 -2.839,2.973 -4.584,6.994 -4.584,11.431 0,9.778 8.472,17.565 18.457,16.456 C 9.463,32.177 15.615,26.025 16.456,18.456 17.565,8.472 9.778,0 0,0 m 70.033,-29.989 -0.813,0.813 -23.882,23.882 c 3.18,6.61 4.969,14.033 4.969,21.856 0,13.885 -5.634,26.469 -14.729,35.578 C 29.737,57.966 22.462,62.388 14.329,64.798 9.789,66.144 4.983,66.869 0,66.869 c -7.822,0 -15.246,-1.79 -21.855,-4.969 -10.219,-4.954 -18.5,-13.235 -23.454,-23.438 -3.194,-6.625 -4.998,-14.048 -4.998,-21.9 0,-4.969 0.725,-9.775 2.071,-14.3 6.151,-20.821 25.419,-36.007 48.236,-36.007 7.852,0 15.275,1.804 21.9,4.998 l 24.695,-24.695 c -46.551,-41.05 -107.682,-65.966 -174.624,-65.966 -54.507,0 -105.154,16.517 -147.224,44.82 -12.847,-12.847 -9.691,-34.431 6.28,-43.093 41.926,-22.74 89.929,-35.65 140.944,-35.65 76.228,0 145.729,28.836 198.299,76.214 8.221,7.394 16.029,15.246 23.364,23.527 z" /></g><g
           transform="translate(297.9424,286.1603)"
           id="g4010"><path
             id="path4012"
             style="fill:#f22a2a;fill-opacity:1;fill-rule:nonzero;stroke:none"
             d="m 0,0 c -6.991,1.145 -12.571,6.853 -13.577,13.865 -0.686,4.782 0.66,9.271 3.327,12.655 0.829,1.08 1.79,2.041 2.869,2.869 3.384,2.668 7.874,4.013 12.655,3.327 C 12.286,31.71 17.995,26.13 19.139,19.139 20.997,7.793 11.346,-1.858 0,0 M 48.19,38.084 C 43.266,48.317 35,56.613 24.812,61.581 c -6.64,3.238 -14.108,5.057 -22.004,5.057 -5.146,0 -10.13,-0.768 -14.803,-2.218 -20.554,-6.314 -35.504,-25.449 -35.504,-48.088 0,-7.897 1.819,-15.364 5.057,-22.004 l -25.005,-25.006 c -41.213,46.581 -66.233,107.815 -66.233,174.906 0,54.802 16.695,105.715 45.294,147.918 -12.692,12.692 -34,9.52 -42.52,-6.278 -22.719,-42.128 -35.617,-90.374 -35.617,-141.64 0,-76.259 28.525,-145.804 75.475,-198.506 7.349,-8.266 15.157,-16.104 23.379,-23.497 l 23.69,23.689 25.035,25.035 c 6.58,-3.15 13.959,-4.924 21.752,-4.924 22.684,0 41.848,15.009 48.133,35.623 1.419,4.643 2.174,9.567 2.174,14.684 0,7.793 -1.775,15.171 -4.925,21.752" /></g><g
           transform="translate(302.293,574.7013)"
           id="g4014"><path
             id="path4016"
             style="fill:#60e260;fill-opacity:1;fill-rule:nonzero;stroke:none"
             d="m 0,0 c 7.582,-0.815 13.751,-6.984 14.566,-14.566 1.114,-10 -6.685,-18.452 -16.441,-18.452 -4.565,0 -8.723,1.848 -11.712,4.864 -3.017,2.989 -4.865,7.12 -4.865,11.713 C -18.452,-6.685 -10,1.114 0,0 m 268.11,117.424 c -42.203,23.126 -90.601,36.252 -142.071,36.252 -76.254,0 -145.768,-28.833 -198.352,-76.227 C -80.52,70.058 -88.319,62.204 -95.657,53.916 L -47.203,5.435 c -3.207,-6.603 -4.973,-14.022 -4.973,-21.876 0,-12.121 4.266,-23.235 11.413,-31.904 l 0.055,-0.109 6.821,-6.82 0.081,-0.055 c 5.082,-4.158 10.979,-7.364 17.392,-9.294 4.62,-1.386 9.484,-2.119 14.539,-2.119 7.826,0 15.245,1.766 21.876,5 10.218,4.919 18.506,13.234 23.452,23.452 3.18,6.603 4.973,13.995 4.973,21.849 0,5.054 -0.734,9.946 -2.147,14.539 -6.223,20.707 -25.436,35.762 -48.154,35.762 -7.827,0 -15.246,-1.794 -21.876,-4.973 l -24.865,24.865 c 46.551,41.089 107.695,66.009 174.655,66.009 54.948,0 106.01,-16.794 148.268,-45.546 5.408,5.408 7.989,12.338 7.989,19.213 0,9.511 -4.919,18.914 -14.186,23.996" /></g></g></g><text
       id="text4020"
       style="font-variant:normal;font-weight:normal;font-stretch:normal;font-size:57.61148071px;font-family:Montserrat;-inkscape-font-specification:Montserrat-Regular;writing-mode:lr-tb;fill:#015eb0;fill-opacity:1;fill-rule:nonzero;stroke:none"
       transform="matrix(-0.20276861,0.97922668,0.97922668,0.20276861,86.9414,337.1435)"><tspan
         id="tspan4018"
         y="0"
         x="0">B</tspan></text>
<text
       id="text4024"
       style="font-variant:normal;font-weight:normal;font-stretch:normal;font-size:57.61142349px;font-family:Montserrat;-inkscape-font-specification:Montserrat-Regular;writing-mode:lr-tb;fill:#015eb0;fill-opacity:1;fill-rule:nonzero;stroke:none"
       transform="matrix(-0.08288287,0.9965593,0.9965593,0.08288287,78.417,378.2549)"><tspan
         id="tspan4022"
         y="0"
         x="0">M</tspan></text>
<text
       id="text4028"
       style="font-variant:normal;font-weight:normal;font-stretch:normal;font-size:57.61146164px;font-family:Montserrat;-inkscape-font-specification:Montserrat-Regular;writing-mode:lr-tb;fill:#015eb0;fill-opacity:1;fill-rule:nonzero;stroke:none"
       transform="matrix(0.10994514,0.99393766,0.99393766,-0.10994514,75.5052,454.0161)"><tspan
         id="tspan4026"
         y="0"
         x="0">T</tspan></text>
<text
       id="text4032"
       style="font-variant:normal;font-weight:normal;font-stretch:normal;font-size:57.61139679px;font-family:Montserrat;-inkscape-font-specification:Montserrat-Regular;writing-mode:lr-tb;fill:#015eb0;fill-opacity:1;fill-rule:nonzero;stroke:none"
       transform="matrix(0.2135758,0.9769265,0.9769265,-0.2135758,79.5098,490.167)"><tspan
         id="tspan4030"
         y="0"
         x="0">E</tspan></text>
<text
       id="text4036"
       style="font-variant:normal;font-weight:normal;font-stretch:normal;font-size:57.61137772px;font-family:Montserrat;-inkscape-font-specification:Montserrat-Regular;writing-mode:lr-tb;fill:#015eb0;fill-opacity:1;fill-rule:nonzero;stroke:none"
       transform="matrix(0.31240356,0.94994948,0.94994948,-0.31240356,88.108,528.5028)"><tspan
         id="tspan4034"
         y="0"
         x="0">L</tspan></text>
<text
       id="text4040"
       style="font-variant:normal;font-weight:normal;font-stretch:normal;font-size:57.61145401px;font-family:Montserrat;-inkscape-font-specification:Montserrat-Regular;writing-mode:lr-tb;fill:#015eb0;fill-opacity:1;fill-rule:nonzero;stroke:none"
       transform="matrix(0.40796574,0.91299724,0.91299724,-0.40796574,98.7596,561.0397)"><tspan
         id="tspan4038"
         y="0"
         x="0">E</tspan></text>
<text
       id="text4044"
       style="font-variant:normal;font-weight:normal;font-stretch:normal;font-size:57.61144638px;font-family:Montserrat;-inkscape-font-specification:Montserrat-Regular;writing-mode:lr-tb;fill:#015eb0;fill-opacity:1;fill-rule:nonzero;stroke:none"
       transform="matrix(0.51058776,0.85982564,0.85982564,-0.51058776,114.6979,596.8304)"><tspan
         id="tspan4042"
         y="0"
         x="0">C</tspan></text>
<text
       id="text4048"
       style="font-variant:normal;font-weight:normal;font-stretch:normal;font-size:57.61139679px;font-family:Montserrat;-inkscape-font-specification:Montserrat-Regular;writing-mode:lr-tb;fill:#015eb0;fill-opacity:1;fill-rule:nonzero;stroke:none"
       transform="matrix(0.61606561,0.78769484,0.78769484,-0.61606561,136.4913,633.8376)"><tspan
         id="tspan4046"
         y="0"
         x="0">O</tspan></text>
<text
       id="text4052"
       style="font-variant:normal;font-weight:normal;font-stretch:normal;font-size:57.61146927px;font-family:Montserrat;-inkscape-font-specification:Montserrat-Regular;writing-mode:lr-tb;fill:#015eb0;fill-opacity:1;fill-rule:nonzero;stroke:none"
       transform="matrix(0.72695072,0.68668964,0.68668964,-0.72695072,166.8915,673.0674)"><tspan
         id="tspan4050"
         y="0"
         x="0">M</tspan></text>
<text
       id="text4056"
       style="font-variant:normal;font-weight:normal;font-stretch:normal;font-size:57.61142349px;font-family:Montserrat;-inkscape-font-specification:Montserrat-Regular;writing-mode:lr-tb;fill:#015eb0;fill-opacity:1;fill-rule:nonzero;stroke:none"
       transform="matrix(0.82870719,0.55968241,0.55968241,-0.82870719,208.9277,712.6625)"><tspan
         id="tspan4054"
         y="0"
         x="0">M</tspan></text>
<text
       id="text4060"
       style="font-variant:normal;font-weight:normal;font-stretch:normal;font-size:57.61142349px;font-family:Montserrat;-inkscape-font-specification:Montserrat-Regular;writing-mode:lr-tb;fill:#015eb0;fill-opacity:1;fill-rule:nonzero;stroke:none"
       transform="matrix(0.89717106,0.44168325,0.44168325,-0.89717106,257.3688,744.4387)"><tspan
         id="tspan4058"
         y="0"
         x="0">S</tspan></text>
<text
       id="text4064"
       style="font-variant:normal;font-weight:normal;font-stretch:normal;font-size:57.61139679px;font-family:Montserrat;-inkscape-font-specification:Montserrat-Regular;writing-mode:lr-tb;fill:#015eb0;fill-opacity:1;fill-rule:nonzero;stroke:none"
       transform="matrix(0.95882241,0.2840063,0.2840063,-0.95882241,307.8741,767.7824)"><tspan
         id="tspan4062"
         y="0"
         x="0">A</tspan></text>
<text
       id="text4068"
       style="font-variant:normal;font-weight:normal;font-stretch:normal;font-size:57.61146164px;font-family:Montserrat;-inkscape-font-specification:Montserrat-Regular;writing-mode:lr-tb;fill:#015eb0;fill-opacity:1;fill-rule:nonzero;stroke:none"
       transform="matrix(0.98820267,0.15315182,0.15315182,-0.98820267,350.1405,780.3904)"><tspan
         id="tspan4066"
         y="0"
         x="0">N</tspan></text>
<text
       id="text4072"
       style="font-variant:normal;font-weight:normal;font-stretch:normal;font-size:57.61141586px;font-family:Montserrat;-inkscape-font-specification:Montserrat-Regular;writing-mode:lr-tb;fill:#015eb0;fill-opacity:1;fill-rule:nonzero;stroke:none"
       transform="matrix(0.99983133,0.01836615,0.01836615,-0.99983133,399.0575,787.7702)"><tspan
         id="tspan4070"
         y="0"
         x="0">D</tspan></text>
<text
       id="text4076"
       style="font-variant:normal;font-weight:normal;font-stretch:normal;font-size:57.61143494px;font-family:Montserrat;-inkscape-font-specification:Montserrat-Regular;writing-mode:lr-tb;fill:#015eb0;fill-opacity:1;fill-rule:nonzero;stroke:none"
       transform="matrix(0.98555954,-0.16932923,-0.16932923,-0.98555954,463.3107,787.3006)"><tspan
         id="tspan4074"
         y="0"
         x="0">N</tspan></text>
<text
       id="text4080"
       style="font-variant:normal;font-weight:normal;font-stretch:normal;font-size:57.61141586px;font-family:Montserrat;-inkscape-font-specification:Montserrat-Regular;writing-mode:lr-tb;fill:#015eb0;fill-opacity:1;fill-rule:nonzero;stroke:none"
       transform="matrix(0.95601368,-0.29332208,-0.29332208,-0.95601368,512.0473,778.4978)"><tspan
         id="tspan4078"
         y="0"
         x="0">E</tspan></text>
<text
       id="text4084"
       style="font-variant:normal;font-weight:normal;font-stretch:normal;font-size:57.61144257px;font-family:Montserrat;-inkscape-font-specification:Montserrat-Regular;writing-mode:lr-tb;fill:#015eb0;fill-opacity:1;fill-rule:nonzero;stroke:none"
       transform="matrix(0.91870291,-0.39494932,-0.39494932,-0.91870291,549.5099,766.8309)"><tspan
         id="tspan4082"
         y="0"
         x="0">T</tspan></text>
<text
       id="text4088"
       style="font-variant:normal;font-weight:normal;font-stretch:normal;font-size:57.61149216px;font-family:Montserrat;-inkscape-font-specification:Montserrat-Regular;writing-mode:lr-tb;fill:#015eb0;fill-opacity:1;fill-rule:nonzero;stroke:none"
       transform="matrix(0.85526341,-0.5181935,-0.5181935,-0.85526341,583.0411,753.273)"><tspan
         id="tspan4086"
         y="0"
         x="0">W</tspan></text>
<text
       id="text4092"
       style="font-variant:normal;font-weight:normal;font-stretch:normal;font-size:57.61142731px;font-family:Montserrat;-inkscape-font-specification:Montserrat-Regular;writing-mode:lr-tb;fill:#015eb0;fill-opacity:1;fill-rule:nonzero;stroke:none"
       transform="matrix(0.765152,-0.64384968,-0.64384968,-0.765152,635.041,721.1485)"><tspan
         id="tspan4090"
         y="0"
         x="0">O</tspan></text>
<text
       id="text4096"
       style="font-variant:normal;font-weight:normal;font-stretch:normal;font-size:57.61139679px;font-family:Montserrat;-inkscape-font-specification:Montserrat-Regular;writing-mode:lr-tb;fill:#015eb0;fill-opacity:1;fill-rule:nonzero;stroke:none"
       transform="matrix(0.67536809,-0.7374808,-0.7374808,-0.67536809,672.9263,688.8752)"><tspan
         id="tspan4094"
         y="0"
         x="0">R</tspan></text>
<text
       id="text4100"
       style="font-variant:normal;font-weight:normal;font-stretch:normal;font-size:57.61147308px;font-family:Montserrat;-inkscape-font-specification:Montserrat-Regular;writing-mode:lr-tb;fill:#015eb0;fill-opacity:1;fill-rule:nonzero;stroke:none"
       transform="matrix(0.58312863,-0.81237984,-0.81237984,-0.58312863,702.1426,656.7824)"><tspan
         id="tspan4098"
         y="0"
         x="0">K</tspan></text>
<text
       id="text4104"
       style="font-variant:normal;font-weight:normal;font-stretch:normal;font-size:57.61146927px;font-family:Montserrat;-inkscape-font-specification:Montserrat-Regular;writing-mode:lr-tb;fill:#015eb0;fill-opacity:1;fill-rule:nonzero;stroke:none"
       transform="matrix(0.49090399,-0.87121368,-0.87121368,-0.49090399,726.1589,623.0448)"><tspan
         id="tspan4102"
         y="0"
         x="0">S</tspan></text>
<text
       id="text4108"
       style="font-variant:normal;font-weight:normal;font-stretch:normal;font-size:57.61140442px;font-family:Montserrat;-inkscape-font-specification:Montserrat-Regular;writing-mode:lr-tb;fill:#015eb0;fill-opacity:1;fill-rule:nonzero;stroke:none"
       transform="matrix(0.34220656,-0.93962475,-0.93962475,-0.34220656,752.3299,573.8641)"><tspan
         id="tspan4106"
         y="0"
         x="0">C</tspan></text>
<text
       id="text4112"
       style="font-variant:normal;font-weight:normal;font-stretch:normal;font-size:57.61143112px;font-family:Montserrat;-inkscape-font-specification:Montserrat-Regular;writing-mode:lr-tb;fill:#015eb0;fill-opacity:1;fill-rule:nonzero;stroke:none"
       transform="matrix(0.21994941,-0.97551128,-0.97551128,-0.21994941,767.1729,533.5524)"><tspan
         id="tspan4110"
         y="0"
         x="0">O</tspan></text>
<text
       id="text4116"
       style="font-variant:normal;font-weight:normal;font-stretch:normal;font-size:57.61146545px;font-family:Montserrat;-inkscape-font-specification:Montserrat-Regular;writing-mode:lr-tb;fill:#015eb0;fill-opacity:1;fill-rule:nonzero;stroke:none"
       transform="matrix(0.13092012,-0.99139292,-0.99139292,-0.13092012,777.2088,485.5809)"><tspan
         id="tspan4114"
         y="0"
         x="0">.</tspan></text>
<text
       id="text4120"
       style="font-variant:normal;font-weight:normal;font-stretch:normal;font-size:57.61138153px;font-family:Montserrat;-inkscape-font-specification:Montserrat-Regular;writing-mode:lr-tb;fill:#015eb0;fill-opacity:1;fill-rule:nonzero;stroke:none"
       transform="matrix(0.01145781,-0.99993436,-0.99993436,-0.01145781,781.2231,449.8897)"><tspan
         id="tspan4118"
         y="0"
         x="0">L</tspan></text>
<text
       id="text4124"
       style="font-variant:normal;font-weight:normal;font-stretch:normal;font-size:57.61145782px;font-family:Montserrat;-inkscape-font-specification:Montserrat-Regular;writing-mode:lr-tb;fill:#015eb0;fill-opacity:1;fill-rule:nonzero;stroke:none"
       transform="matrix(-0.07451296,-0.99722005,-0.99722005,0.07451296,781.7204,419.6383)"><tspan
         id="tspan4122"
         y="0"
         x="0">T</tspan></text>
<text
       id="text4128"
       style="font-variant:normal;font-weight:normal;font-stretch:normal;font-size:57.61146545px;font-family:Montserrat;-inkscape-font-specification:Montserrat-Regular;writing-mode:lr-tb;fill:#015eb0;fill-opacity:1;fill-rule:nonzero;stroke:none"
       transform="matrix(-0.18831669,-0.98210836,-0.98210836,0.18831669,779.2249,383.4086)"><tspan
         id="tspan4126"
         y="0"
         x="0">D</tspan></text>
<g
       id="g4130"><g
         clip-path="url(#clipPath4136)"
         id="g4132"><g
           transform="translate(764.7061,183.7316)"
           id="g4138"><path
             id="path4140"
             style="fill:#015eb0;fill-opacity:1;fill-rule:nonzero;stroke:none"
             d="m 0,0 c -8.098,-11.414 -16.957,-22.61 -26.332,-33.29 -4.512,-5.19 -9.349,-10.462 -14.431,-15.653 l -58.426,58.427 0.027,0.027 c 4.266,4.348 8.37,8.778 12.175,13.153 7.472,8.56 14.565,17.528 21.06,26.659 41.062,57.72 62.775,125.957 62.775,197.346 0,89.352 -34.077,173.568 -96.01,237.158 -58.889,60.52 -137.37,96.092 -220.988,100.168 -11.469,0.544 -22.665,0.516 -33.671,-0.054 -83.156,-4.348 -161.203,-39.92 -219.766,-100.114 -61.932,-63.59 -96.037,-147.806 -96.037,-237.158 0,-88.836 33.725,-172.617 94.978,-236.044 l -59.949,-59.948 c -77.151,79.406 -119.598,184.492 -119.598,295.992 0,111.69 42.61,216.94 120.006,296.4 73.155,75.221 170.66,119.625 274.551,125.088 13.696,0.706 27.827,0.734 42.067,0.081 104.434,-5.109 202.482,-49.54 276.046,-125.169 C 35.872,463.609 78.482,358.359 78.482,246.669 78.482,157.453 51.334,72.15 0,0 m -35.164,549.265 c -75.14,77.232 -175.28,122.642 -281.997,127.832 -14.539,0.68 -28.942,0.626 -42.938,-0.081 -106.119,-5.571 -205.716,-50.927 -280.447,-127.751 -78.999,-81.118 -122.506,-188.596 -122.506,-302.596 0,-114.027 43.507,-221.478 122.478,-302.596 4.973,-5.136 10.164,-10.218 15.408,-15.055 10.626,-9.864 21.768,-19.24 33.1,-27.8 26.713,-20.218 55.764,-37.257 86.309,-50.573 4.647,-2.011 9.457,-4.022 14.375,-5.952 2.31,-0.896 4.593,-1.766 6.903,-2.635 0.19,-0.082 0.38,-0.163 0.543,-0.191 2.364,-0.896 4.756,-1.766 7.147,-2.581 1.875,-0.653 3.723,-1.305 5.544,-1.903 1.875,-0.625 3.723,-1.25 5.598,-1.847 l 0.897,-0.272 c 1.277,-0.408 2.5,-0.788 3.777,-1.169 2.202,-0.679 4.375,-1.331 6.522,-1.929 0.979,-0.299 1.957,-0.571 2.908,-0.843 l 0.842,-0.244 c 1.305,-0.353 2.582,-0.706 3.805,-1.033 1.25,-0.353 2.527,-0.679 3.859,-1.005 1.305,-0.353 2.581,-0.68 3.859,-0.978 2.554,-0.625 5.109,-1.251 7.663,-1.821 1.305,-0.326 2.609,-0.598 3.886,-0.87 1.305,-0.299 2.582,-0.543 3.832,-0.815 1.63,-0.353 3.207,-0.68 4.755,-0.952 1.061,-0.244 2.093,-0.434 3.071,-0.597 2.609,-0.489 5.218,-0.979 7.827,-1.386 0.978,-0.19 1.957,-0.353 2.88,-0.489 0.68,-0.109 1.387,-0.218 2.066,-0.326 l 0.244,-0.028 c 1.549,-0.271 3.125,-0.489 4.675,-0.706 l 1.304,-0.19 c 0.435,-0.055 0.842,-0.136 1.359,-0.191 1.114,-0.163 2.255,-0.326 3.315,-0.434 6.549,-0.87 13.343,-1.576 20.191,-2.147 1.304,-0.109 2.636,-0.217 3.832,-0.272 1.114,-0.109 2.256,-0.19 3.315,-0.244 l 1.767,-0.137 c 1.739,-0.135 3.315,-0.135 4.456,-0.189 l 0.598,8.261 c 0.299,3.097 0.462,6.25 0.462,9.429 0,21.496 -7.201,41.334 -19.348,57.177 -15.898,23.86 -46.008,34.295 -63.944,40.491 -3.125,1.087 -5.87,2.038 -8.098,2.908 l -0.244,0.081 c -1.794,0.68 -3.615,1.359 -5.409,2.066 -3.777,1.494 -7.5,3.044 -11.06,4.592 -23.561,10.272 -45.926,23.398 -66.552,38.997 -8.723,6.603 -17.311,13.805 -25.518,21.414 -4.048,3.75 -8.016,7.663 -11.848,11.604 -60.926,62.557 -94.488,145.441 -94.488,233.38 0,87.939 33.562,170.796 94.488,233.354 57.612,59.242 134.382,94.216 216.179,98.483 10.789,0.57 21.822,0.598 33.099,0.054 82.26,-3.995 159.438,-38.997 217.375,-98.537 60.927,-62.558 94.461,-145.415 94.461,-233.354 0,-70.248 -21.36,-137.398 -61.769,-194.194 -6.386,-8.995 -13.371,-17.827 -20.735,-26.224 -3.75,-4.293 -7.772,-8.669 -11.957,-12.962 -18.181,-18.697 -38.589,-35.22 -60.628,-49.106 l -1.114,-0.706 c -0.897,-0.544 -1.794,-1.115 -2.745,-1.685 -1.005,-0.625 -2.038,-1.223 -3.261,-1.957 -0.924,-0.571 -1.902,-1.142 -2.989,-1.766 -1.359,-0.789 -2.691,-1.549 -4.104,-2.338 -1.332,-0.76 -2.635,-1.467 -4.131,-2.282 -1.25,-0.679 -2.472,-1.332 -3.75,-2.011 -1.114,-0.571 -2.228,-1.168 -3.396,-1.739 -1.739,-0.897 -3.451,-1.767 -5.245,-2.609 -1.739,-0.87 -3.479,-1.713 -5.272,-2.528 -1.467,-0.679 -2.963,-1.386 -4.457,-2.038 -1.44,-0.652 -2.853,-1.277 -4.321,-1.902 l -5.381,-2.255 c -1.467,-0.598 -2.989,-1.196 -4.511,-1.794 -1.495,-0.598 -2.989,-1.196 -4.51,-1.74 -1.903,-0.679 -4.186,-1.412 -6.767,-2.255 -9.022,-2.935 -22.148,-7.201 -35.247,-14.674 -30.897,-15.463 -52.067,-47.421 -52.067,-84.298 0,-2.5 0.082,-4.973 0.298,-7.392 0.055,-0.788 0.11,-1.576 0.191,-2.364 l 0.625,-7.418 c 0.843,0.026 0.625,0.026 1.413,0.026 1.142,0.028 2.283,0.055 3.424,0.137 0.571,0.027 1.141,0.054 1.631,0.108 2.038,0.136 4.076,0.272 6.087,0.435 1.929,0.163 3.859,0.326 5.761,0.516 1.63,0.163 3.261,0.326 4.783,0.516 1.332,0.137 2.664,0.272 3.886,0.408 1.685,0.191 3.343,0.408 4.973,0.598 2.853,0.381 5.707,0.761 8.506,1.196 1.712,0.244 3.424,0.516 5.082,0.788 0.869,0.136 1.739,0.272 2.608,0.435 l 0.326,0.054 c 1.685,0.272 3.343,0.571 4.947,0.87 1.521,0.272 3.016,0.543 4.538,0.842 l 1.44,0.272 c 1.657,0.326 3.288,0.679 4.892,1.005 1.195,0.245 2.364,0.489 3.396,0.734 l 0.924,0.191 c 1.061,0.217 2.12,0.461 3.234,0.733 l 0.571,0.136 c 0.489,0.109 0.951,0.217 1.44,0.326 l 2.446,0.571 c 0.924,0.217 1.848,0.435 2.664,0.652 1.004,0.245 1.983,0.489 2.989,0.761 1.223,0.272 2.418,0.598 3.532,0.897 0.788,0.19 1.549,0.407 2.256,0.625 1.739,0.434 3.506,0.951 5.271,1.44 1.767,0.489 3.534,1.005 5.246,1.522 1.141,0.326 2.282,0.679 3.533,1.06 l 0.543,0.19 c 0.381,0.108 0.76,0.217 1.114,0.353 1.358,0.408 2.718,0.842 3.995,1.25 1.195,0.38 2.364,0.788 3.56,1.169 l 1.495,0.516 c 1.928,0.652 3.886,1.304 5.761,1.984 2.336,0.815 4.647,1.685 6.957,2.527 1.983,0.761 3.967,1.495 5.896,2.283 1.957,0.761 3.913,1.522 5.951,2.364 l 0.327,0.136 c 0.217,0.081 0.408,0.163 0.489,0.217 1.522,0.625 3.016,1.25 4.62,1.903 l 0.679,0.299 c 0.272,0.135 0.571,0.244 0.761,0.353 1.875,0.788 3.75,1.603 5.571,2.445 1.957,0.843 3.886,1.74 5.816,2.637 2.527,1.168 4.782,2.255 6.848,3.26 2.283,1.115 4.538,2.256 6.766,3.397 1.495,0.734 2.989,1.522 4.457,2.283 1.63,0.87 3.261,1.739 4.946,2.663 1.766,0.951 3.533,1.93 5.245,2.881 1.794,1.005 3.56,2.011 5.435,3.098 1.277,0.761 2.554,1.494 3.804,2.256 1.413,0.842 2.826,1.684 4.185,2.5 1.196,0.733 2.392,1.467 3.587,2.228 l 1.413,0.87 c 28.616,18.044 55.084,39.485 78.646,63.698 5.435,5.598 10.68,11.251 15.517,16.822 9.565,10.897 18.587,22.338 26.876,33.996 52.42,73.644 80.113,160.714 80.113,251.805 0,114 -43.508,221.478 -122.506,302.596" /></g><g
           transform="translate(119.4966,253.1266)"
           id="g4142"><path
             id="path4144"
             style="fill:#015eb0;fill-opacity:1;fill-rule:nonzero;stroke:none"
             d="m 0,0 0.016,-0.03 c -1.222,-0.956 -2.459,-1.883 -3.68,-2.839 -2.579,-2.019 -5.172,-4.007 -7.751,-6.026 -0.935,-0.698 -1.825,-1.412 -2.76,-2.11 -0.196,-0.137 -0.241,-0.273 -0.179,-0.545 0.718,-2.477 1.406,-4.969 2.125,-7.446 0.458,-1.661 0.932,-3.277 1.391,-4.939 0.459,-1.586 0.887,-3.187 1.3,-4.833 -0.212,0.271 -0.455,0.527 -0.668,0.799 -1.548,2.021 -3.111,4.072 -4.69,6.077 -1.624,2.096 -3.249,4.192 -4.873,6.288 -0.243,0.333 -0.516,0.649 -0.729,0.996 -0.136,0.196 -0.303,0.226 -0.529,0.15 -1.586,-0.459 -3.172,-0.918 -4.773,-1.346 -2.553,-0.719 -5.135,-1.453 -7.688,-2.171 -1.586,-0.459 -3.186,-0.887 -4.818,-1.331 0.286,0.258 0.618,0.501 0.92,0.729 2.006,1.578 4.027,3.127 6.047,4.675 2.413,1.898 4.871,3.78 7.329,5.662 0.136,0.106 0.12,0.212 0.074,0.378 -0.657,2.281 -1.269,4.547 -1.926,6.827 -0.719,2.553 -1.437,5.105 -2.171,7.688 -0.245,0.861 -0.505,1.752 -0.719,2.628 -0.031,0.06 -0.046,0.091 0.014,0.197 0.38,-0.528 0.775,-1.011 1.184,-1.523 1.564,-2.051 3.173,-4.117 4.782,-6.183 1.381,-1.84 2.823,-3.65 4.235,-5.474 0.258,-0.362 0.532,-0.679 0.789,-1.041 0.122,-0.166 0.213,-0.196 0.379,-0.15 2.839,0.826 5.664,1.605 8.503,2.431 2.553,0.719 5.151,1.422 7.733,2.156 C -0.74,-0.184 -0.377,-0.077 0,0" /></g><g
           transform="translate(775.7021,234.0558)"
           id="g4146"><path
             id="path4148"
             style="fill:#015eb0;fill-opacity:1;fill-rule:nonzero;stroke:none"
             d="m 0,0 -0.015,-0.031 c -1.501,0.391 -2.988,0.812 -4.489,1.202 -3.169,0.824 -6.324,1.678 -9.494,2.502 -1.122,0.319 -2.23,0.594 -3.352,0.912 -0.227,0.074 -0.363,0.027 -0.542,-0.187 -1.532,-2.075 -3.095,-4.134 -4.628,-6.209 -1.042,-1.373 -2.039,-2.73 -3.08,-4.103 -0.982,-1.327 -1.995,-2.639 -3.052,-3.967 0.087,0.334 0.143,0.682 0.23,1.016 0.666,2.457 1.347,4.944 1.983,7.416 0.679,2.563 1.36,5.126 2.04,7.689 0.116,0.395 0.202,0.804 0.348,1.184 0.073,0.227 -0.005,0.377 -0.202,0.511 -1.327,0.982 -2.654,1.964 -3.967,2.977 -2.12,1.592 -4.27,3.199 -6.391,4.792 -1.327,0.982 -2.639,1.994 -3.982,3.021 0.379,-0.071 0.774,-0.187 1.137,-0.288 2.473,-0.637 4.93,-1.303 7.387,-1.969 2.971,-0.766 5.96,-1.577 8.948,-2.387 0.166,-0.044 0.241,0.032 0.346,0.169 1.413,1.907 2.842,3.769 4.255,5.675 1.593,2.121 3.185,4.242 4.792,6.392 0.536,0.717 1.086,1.464 1.653,2.166 0.029,0.061 0.044,0.092 0.165,0.108 -0.19,-0.622 -0.333,-1.228 -0.492,-1.865 -0.681,-2.488 -1.346,-5.02 -2.011,-7.553 -0.624,-2.215 -1.188,-4.459 -1.78,-6.688 -0.131,-0.425 -0.217,-0.834 -0.348,-1.259 -0.059,-0.198 -0.027,-0.288 0.11,-0.392 2.379,-1.755 4.714,-3.527 7.093,-5.282 2.12,-1.593 4.257,-3.23 6.407,-4.838 C -0.595,0.477 -0.29,0.253 0,0" /></g></g></g></g></svg>